<svg xmlns:dc="http://purl.org/dc/elements/1.1/" xmlns:cc="http://creativecommons.org/ns#" xmlns:rdf="http://www.w3.org/1999/02/22-rdf-syntax-ns#" xmlns:svg="http://www.w3.org/2000/svg" xmlns="http://www.w3.org/2000/svg" viewBox="0 0 534.89331 338.41333" height="338.41333" width="534.89331" xml:space="preserve" id="svg2" version="1.1"><script xmlns=""/><metadata id="metadata8"><rdf:RDF><cc:Work rdf:about=""><dc:format>image/svg+xml</dc:format><dc:type rdf:resource="http://purl.org/dc/dcmitype/StillImage"/></cc:Work></rdf:RDF></metadata><defs id="defs6"/><g transform="matrix(1.3333333,0,0,-1.3333333,0,338.41333)" id="g10"><g transform="scale(0.1)" id="g12"><path id="path14" style="fill:#4275b2;fill-opacity:1;fill-rule:nonzero;stroke:none" d="m 2750.32,2538.11 -276.23,-360.73 -147.73,-192.75 -211.11,-275.65 -154,-201.06 -273.02,-356.51 h -540.37 l 273.02,356.51 154.29,201.49 210.82,275.22 147.58,192.75 276.23,360.73 h 540.52"/><path id="path16" style="fill:#3c3e40;fill-opacity:1;fill-rule:nonzero;stroke:none" d="m 1505.23,1713.92 207.3,270.71 h -63.2 c -99.51,0 -147.15,26.95 -147.15,97.46 0,70.52 47.64,95.29 147.15,95.29 h 210.81 l 276.26,360.73 h -453.86 c -420.75,0 -594.86,-170.02 -594.86,-431.1 0,-214.11 132.26,-364.62 417.55,-393.09"/>
<path id="path18" style="fill:#3c3e40;fill-opacity:1;fill-rule:nonzero;stroke:none" d="m 2403.72,1984.63 h -3.93 l -211.11,-275.65 h 173.66 c 101.55,0 147.15,-29 147.15,-99.51 0,-72.56 -45.6,-101.55 -147.15,-101.55 h -327.65 l -273.05,-356.51 h 567.49 c 422.79,0 594.86,170.03 594.86,453.98 0,252.77 -182.41,379.24 -520.27,379.24"/><path id="path20" style="fill:#4275b2;fill-opacity:1;fill-rule:nonzero;stroke:none" d="m 422.699,534.512 h 92.059 V 910.238 H 422.699 V 534.512"/><path id="path22" style="fill:#4275b2;fill-opacity:1;fill-rule:nonzero;stroke:none" d="M 817.852,687.309 671.945,910.238 H 574.879 V 534.512 h 92.055 v 223.57 l 146.535,-223.57 h 95.812 V 910.238 H 817.852 V 687.309"/><path id="path24" style="fill:#4275b2;fill-opacity:1;fill-rule:nonzero;stroke:none" d="m 1117.2,729.27 -75.77,180.968 h -95.821 l 165.951,-388.25 h 11.27 l 165.95,388.25 h -95.81 L 1117.2,729.27"/><path id="path26" style="fill:#4275b2;fill-opacity:1;fill-rule:nonzero;stroke:none" d="m 1417.17,681.051 h 144.66 v 80.148 h -144.66 v 67.641 h 156.56 v 81.398 H 1325.12 V 534.512 h 255.5 v 78.91 h -163.45 v 67.629"/><path id="path28" style="fill:#4275b2;fill-opacity:1;fill-rule:nonzero;stroke:none" d="m 1753.46,838.859 c 25.68,0 38.83,-17.539 38.83,-38.828 h 86.41 c -5.01,69.508 -44.46,122.739 -127.75,122.739 -70.76,0 -127.75,-55.11 -127.75,-121.489 0,-64.5 35.07,-93.941 98.32,-116.472 30.69,-10.649 67.64,-18.789 67.64,-46.969 0,-19.41 -14.41,-32.57 -37.58,-32.57 -21.29,0 -38.83,17.539 -38.83,39.46 h -89.55 c 0,-67.64 46.35,-122.742 128.38,-122.742 70.76,0 127.12,55.102 127.12,121.492 0,58.86 -31.31,96.43 -98.31,116.469 -31.94,9.403 -66.38,14.41 -66.38,42.59 0,24.41 19.41,36.32 39.45,36.32"/><path id="path30" style="fill:#4275b2;fill-opacity:1;fill-rule:nonzero;stroke:none" d="m 1923.18,828.84 h 83.92 V 534.512 h 92.67 V 828.84 h 85.17 v 81.398 H 1923.18 V 828.84"/><path id="path32" style="fill:#4275b2;fill-opacity:1;fill-rule:nonzero;stroke:none" d="m 2409.14,707.34 -95.81,202.898 h -85.8 V 534.512 h 92.06 v 168.457 l 82.04,-180.981 h 15.03 l 82.03,179.723 V 534.512 h 91.43 v 375.726 h -84.54 L 2409.14,707.34"/><path id="path34" style="fill:#4275b2;fill-opacity:1;fill-rule:nonzero;stroke:none" d="m 2742.3,681.051 h 144.66 v 80.148 H 2742.3 v 67.641 h 156.55 v 81.398 H 2650.24 V 534.512 h 255.5 v 78.91 H 2742.3 v 67.629"/><path id="path36" style="fill:#4275b2;fill-opacity:1;fill-rule:nonzero;stroke:none" d="m 3193.19,687.309 -145.91,222.929 h -97.06 V 534.512 h 92.05 v 223.57 l 146.53,-223.57 h 95.81 v 375.726 h -91.42 V 687.309"/><path id="path38" style="fill:#4275b2;fill-opacity:1;fill-rule:nonzero;stroke:none" d="m 3327.21,828.84 h 83.92 V 534.512 h 92.67 V 828.84 h 85.17 v 81.398 H 3327.21 V 828.84"/><path id="path40" style="fill:#3c3e40;fill-opacity:1;fill-rule:nonzero;stroke:none" d="m 130.254,316.898 c 25.68,0 38.828,-17.539 38.828,-38.828 h 86.414 C 250.488,347.582 211.039,400.809 127.75,400.809 56.9883,400.809 0,345.699 0,279.32 c 0,-64.5 35.0703,-93.941 98.3164,-116.468 30.6876,-10.653 67.6366,-18.793 67.6366,-46.973 0,-19.4102 -14.406,-32.5704 -37.578,-32.5704 -21.289,0 -38.8242,17.5434 -38.8242,39.4614 L 0,122.77 C 0,55.1289 46.3438,0.03125 128.375,0.03125 c 70.766,0 127.121,55.09765 127.121,121.48875 0,58.859 -31.308,96.429 -98.312,116.472 -31.942,9.399 -66.3793,14.406 -66.3793,42.59 0,24.41 19.4103,36.316 39.4493,36.316"/><path id="path42" style="fill:#3c3e40;fill-opacity:1;fill-rule:nonzero;stroke:none" d="m 514.086,313.809 c 66.398,0 109,-50.11 109,-113.399 0,-63.199 -42.602,-113.3006 -109,-113.3006 -67,0 -108.898,50.1016 -108.898,113.3006 0,63.289 41.898,113.399 108.898,113.399 z m 0,87 c -119,0 -202.301,-88.309 -202.301,-200.399 C 311.785,88.3086 395.086,0 514.086,0 c 118.398,0 202.301,88.3086 202.301,200.41 0,112.09 -83.903,200.399 -202.301,200.399"/><path id="path44" style="fill:#3c3e40;fill-opacity:1;fill-rule:nonzero;stroke:none" d="M 872.324,388.289 H 780.273 V 12.5508 H 1035.77 V 91.4609 H 872.324 V 388.289"/><path id="path46" style="fill:#3c3e40;fill-opacity:1;fill-rule:nonzero;stroke:none" d="m 1284.39,152.832 c 0,-50.102 -21.92,-67.6406 -56.99,-67.6406 -31.93,0 -55.73,17.5386 -55.73,67.6406 v 235.457 h -91.43 V 139.051 c 0,-86.4221 61.37,-139.01975 147.16,-139.01975 82.67,0 149.05,50.09765 149.05,139.01975 v 249.238 h -92.06 V 152.832"/><path id="path48" style="fill:#3c3e40;fill-opacity:1;fill-rule:nonzero;stroke:none" d="m 1419.03,306.879 h 83.92 V 12.5508 h 92.69 V 306.879 h 85.16 v 81.41 h -261.77 v -81.41"/><path id="path50" style="fill:#3c3e40;fill-opacity:1;fill-rule:nonzero;stroke:none" d="m 1723.39,12.5508 h 92.05 V 388.289 h -92.05 V 12.5508"/><path id="path52" style="fill:#3c3e40;fill-opacity:1;fill-rule:nonzero;stroke:none" d="m 2081.59,313.809 c 66.4,0 109,-50.11 109,-113.399 0,-63.199 -42.6,-113.3006 -109,-113.3006 -67,0 -109,50.1016 -109,113.3006 0,63.289 42,113.399 109,113.399 z m 0,87 c -119,0 -202.3,-88.309 -202.3,-200.399 0,-112.1014 83.3,-200.41 202.3,-200.41 118.4,0 202.3,88.3086 202.3,200.41 0,112.09 -83.9,200.399 -202.3,200.399"/><path id="path54" style="fill:#3c3e40;fill-opacity:1;fill-rule:nonzero;stroke:none" d="m 2590.73,165.352 -145.92,222.937 h -97.06 V 12.5508 h 92.06 V 236.121 L 2586.35,12.5508 h 95.81 V 388.289 h -91.43 V 165.352"/><path id="path56" style="fill:#3c3e40;fill-opacity:1;fill-rule:nonzero;stroke:none" d="m 2870.66,316.898 c 25.68,0 38.82,-17.539 38.82,-38.828 h 86.43 c -5.01,69.512 -44.46,122.739 -127.76,122.739 -70.76,0 -127.74,-55.11 -127.74,-121.489 0,-64.5 35.07,-93.941 98.31,-116.468 30.68,-10.653 67.64,-18.793 67.64,-46.973 0,-19.4102 -14.41,-32.5704 -37.58,-32.5704 -21.29,0 -38.83,17.5434 -38.83,39.4614 h -89.54 c 0,-67.6411 46.34,-122.73875 128.37,-122.73875 70.76,0 127.13,55.09765 127.13,121.48875 0,58.859 -31.32,96.429 -98.32,116.472 -31.94,9.399 -66.38,14.406 -66.38,42.59 0,24.41 19.42,36.316 39.45,36.316"/><path id="path58" style="fill:#3c3e40;fill-opacity:1;fill-rule:nonzero;stroke:none" d="m 3330.99,117.109 43.8,95.192 h 1.3 l 43.2,-95.192 z m 36.9,283.7 L 3185.09,12.5 h 98.9 l 18.2,38.9102 h 148.4 L 3469.39,12.5 h 98.9 l -184.1,388.309 h -16.3"/><path id="path60" style="fill:#3c3e40;fill-opacity:1;fill-rule:nonzero;stroke:none" d="m 3805.02,239.242 v -79.531 h 107.09 c -2.51,-36.32 -34.44,-72.6407 -100.2,-72.6407 -62.62,0 -112.09,43.8397 -112.09,113.3517 0,63.25 43.21,113.34 110.21,113.34 35.69,0 67.64,-14.403 93.31,-37.563 l 63.88,58.852 c -39.46,40.078 -87.68,65.758 -157.19,65.758 -118.98,0 -203.52,-88.297 -203.52,-200.387 0,-112.1017 84.54,-200.39075 203.52,-200.39075 136.52,0 201.64,92.67965 201.64,203.51975 v 35.691 h -206.65"/></g></g>
<script xmlns=""/></svg>